PathFileType	4	(X/Y/Z)	8_coords_data.trc
DataRate	CameraRate	NumFrames	NumMarkers	Units	OrigDataRate	OrigDataStartFrame	OrigNumFrames
30.0	30.0	9	21	m	30.0	1	56
Frame#	Time	THUMB_TIP	THUMB_IP	THUMB_MCP	THUMB_CMC	INDEX_TIP	INDEX_DIP	INDEX_PIP	INDEX_MCP	MIDDLE_TIP	MIDDLE_DIP	MIDDLE_PIP	MIDDLE_MCP	RING_TIP	RING_DIP	RING_PIP	RING_MCP	PINKY_TIP	PINKY_DIP	PINKY_PIP	PINKY_MCP	WRIST
X1	Y1	Z1	X2	Y2	Z2	X3	Y3	Z3	X4	Y4	Z4	X5	Y5	Z5	X6	Y6	Z6	X7	Y7	Z7	X8	Y8	Z8	X9	Y9	Z9	X10	Y10	Z10	X11	Y11	Z11	X12	Y12	Z12	X13	Y13	Z13	X14	Y14	Z14	X15	Y15	Z15	X16	Y16	Z16	X17	Y17	Z17	X18	Y18	Z18	X19	Y19	Z19	X20	Y20	Z20	X21	Y21	Z21
0	0.0	-0.04068489837646484	-0.0596442985534668	0.9497849731445313	-0.03149869918823242	-0.04522779846191406	0.9689730224609375	-0.02590730094909668	-0.03272520065307617	0.9904320068359375	-0.039396499633789064	-0.010626799583435058	1.0043699951171876	-6.8097703158855e-05	-0.13308099365234374	0.9843270263671875	-0.00620507001876831	-0.11218599700927734	0.9897739868164063	-0.01465190029144287	-0.09699829864501953	0.9980040283203125	-0.03184210014343262	-0.067989501953125	1.0134500122070313	-0.03638079833984375	-0.04542850112915039	0.992343017578125	-0.030278099060058593	-0.05850799942016602	0.9759520263671875	-0.034024398803710935	-0.08220950317382812	0.9768920288085937	-0.05604489898681641	-0.07187920379638672	1.0096199951171876	-0.04414440155029297	-0.04448149871826172	0.974260009765625	-0.04668050003051758	-0.06222109985351563	0.967864013671875	-0.05757509994506836	-0.08146949768066407	0.973291015625	-0.06529640197753907	-0.06450489807128906	0.9948619995117187	-0.10127100372314453	-0.10708300018310547	0.9760789794921875	-0.09436080169677734	-0.08892259979248048	0.97918701171875	-0.08788040161132812	-0.07551349639892578	0.982448974609375	-0.07809290313720703	-0.054024898529052734	0.9879010009765625	-0.06427449798583984	0.003102099895477295	1.0306500244140624
1	0.03333333333333333	-0.040453800201416014	-0.0599031982421875	0.9515460205078125	-0.031013200759887696	-0.045436798095703126	0.9699650268554687	-0.025645200729370116	-0.03133489990234375	0.992155029296875	-0.039024101257324216	-0.010761699676513671	1.0050700073242187	0.00034428200125694204	-0.13320199584960937	0.9834979858398437	-0.0062156801223754886	-0.11339800262451172	0.9891799926757813	-0.015039600372314454	-0.09737670135498047	0.9978410034179688	-0.03189170074462891	-0.06772149658203125	1.0116300048828124	-0.03513679885864258	-0.04587540054321289	0.98875	-0.03128619956970215	-0.0595625	0.9768809814453125	-0.035229000091552734	-0.08270339965820313	0.9780709838867188	-0.05515639877319336	-0.07041570281982422	1.011010009765625	-0.044551498413085935	-0.04457270050048828	0.9750339965820313	-0.04663759994506836	-0.06127730178833008	0.96777001953125	-0.057604499816894535	-0.08153070068359375	0.9724439697265626	-0.06777189636230468	-0.0635988006591797	0.9984359741210938	-0.1015780029296875	-0.10751499938964844	0.9742039794921875	-0.09409349822998046	-0.08877239990234374	0.9782529907226563	-0.08820189666748048	-0.07498590087890625	0.9824500122070312	-0.07710469818115234	-0.0530806999206543	0.9863619995117188	-0.06303020095825196	0.00047608500719070404	1.0278800048828125
2	0.06666666666666667	-0.04044820022583008	-0.05971379852294922	0.951197998046875	-0.030890300750732423	-0.045322498321533206	0.9696309814453125	-0.02552090072631836	-0.03137249946594238	0.9919219970703125	-0.038832298278808595	-0.010737000465393066	1.0048900146484374	-0.00029464200139045705	-0.1337480010986328	0.983239990234375	-0.006624969959259033	-0.11385099792480469	0.9888109741210938	-0.015265299797058105	-0.09770379638671875	0.9974390258789062	-0.03226860046386719	-0.06785030364990234	1.0113300170898438	-0.034891700744628905	-0.045769001007080076	0.98856298828125	-0.031332099914550784	-0.0593120002746582	0.9765859985351563	-0.035306499481201174	-0.08261260223388672	0.9775830078125	-0.05504679870605469	-0.07037449645996094	1.0106599731445312	-0.04438299942016601	-0.04413330078125	0.974698974609375	-0.04662310028076172	-0.0612052001953125	0.9672130126953125	-0.057585899353027346	-0.081356201171875	0.9720089721679688	-0.06775800323486328	-0.06353760147094727	0.9979340209960937	-0.10192900085449219	-0.10703099822998047	0.9734080200195312	-0.09430490112304687	-0.08843009948730468	0.9776719970703125	-0.088322998046875	-0.0746156005859375	0.9819569702148437	-0.07698539733886718	-0.05281060028076172	0.9858779907226562	-0.06279510116577149	0.000444274008274078	1.0277099609375
3	0.1	-0.040402099609375	-0.059612499237060544	0.9509080200195312	-0.030832700729370117	-0.04527949905395508	0.9694030151367188	-0.025451200485229492	-0.03145100021362305	0.9917210083007812	-0.03874560165405273	-0.01080780029296875	1.0046900024414063	-0.000671925008296966	-0.13406300354003906	0.9830479736328125	-0.006906919956207276	-0.1141780014038086	0.9886069946289062	-0.015461600303649903	-0.09790959930419922	0.9972080078125	-0.031969699859619144	-0.06794249725341797	1.0111699829101561	-0.03481039810180664	-0.04583330154418945	0.9876500244140625	-0.031243000030517578	-0.05935409927368164	0.9759110107421874	-0.03542890167236328	-0.08254560089111328	0.9772119750976562	-0.055108200073242186	-0.07035700225830079	1.0103200073242187	-0.044232200622558594	-0.043953498840332034	0.9745440063476563	-0.04661479949951172	-0.06109799957275391	0.967094970703125	-0.05771030044555664	-0.08126529693603515	0.9717349853515626	-0.06779129791259765	-0.0634182014465332	0.997593994140625	-0.10238999938964843	-0.10658799743652343	0.9727880249023437	-0.09466510009765625	-0.08805660247802734	0.9771079711914062	-0.08849130249023437	-0.07438069915771485	0.9815360107421875	-0.07700980377197265	-0.05262459945678711	0.985655029296875	-0.06269969940185546	0.00041437199711799605	1.0276600341796875
4	0.13333333333333333	-0.040487598419189454	-0.05945169830322266	0.950594970703125	-0.030784299850463867	-0.04519139862060547	0.9691530151367187	-0.025400800704956053	-0.03149180030822754	0.9916309814453125	-0.03866249847412109	-0.010868000030517579	1.0045999755859376	-0.001131629943847656	-0.1343419952392578	0.9823989868164062	-0.00725452995300293	-0.1144260025024414	0.9879810180664063	-0.015755399703979493	-0.09814340209960938	0.9967169799804687	-0.03198909950256348	-0.06812550354003906	1.010530029296875	-0.034812698364257814	-0.0457681999206543	0.9874619750976562	-0.03131719970703125	-0.05928459930419922	0.975531005859375	-0.03562179946899414	-0.08251419830322265	0.9767360229492188	-0.05523649978637695	-0.0704573974609375	1.0100800170898439	-0.0443026008605957	-0.04397819900512695	0.9743759765625	-0.04665349960327148	-0.06079840087890625	0.9667109985351563	-0.05784939956665039	-0.08107350158691407	0.97127099609375	-0.06796980285644531	-0.06341609954833985	0.9973070068359375	-0.10276300048828126	-0.10616500091552734	0.9720700073242188	-0.09494450378417969	-0.08774770355224609	0.9765570068359375	-0.08865959930419921	-0.07408660125732422	0.9809840087890624	-0.07707450103759765	-0.05247079849243164	0.9853889770507812	-0.06254079818725586	0.000307164996862411	1.0276500244140625
5	0.16666666666666666	-0.04111059951782227	-0.05905059814453125	0.949927001953125	-0.03125950050354004	-0.04492539978027344	0.9685040283203125	-0.025846099853515624	-0.031414400100708006	0.99102001953125	-0.03886479949951172	-0.010685299873352051	1.004219970703125	-0.0024170899391174313	-0.1345299987792969	0.9814929809570313	-0.008315670013427734	-0.1145790023803711	0.9870989990234375	-0.01664360046386719	-0.09825650024414062	0.9958820190429688	-0.032663799285888674	-0.06813590240478516	1.0100700073242188	-0.035452899932861326	-0.04541569900512695	0.9873330078125	-0.03183950042724609	-0.059029499053955076	0.9747919921875	-0.03649810028076172	-0.08226190185546875	0.9758759765625	-0.05581499862670898	-0.07022370147705079	1.0091900024414062	-0.044760501861572266	-0.04339049911499023	0.9735609741210938	-0.04734650039672852	-0.060417499542236325	0.9658839721679687	-0.05864709854125977	-0.0806302032470703	0.9704719848632812	-0.06862210083007812	-0.06298049926757812	0.9966279907226563	-0.10381199645996093	-0.10533699798583984	0.9714000244140625	-0.09580159759521484	-0.08696659851074219	0.97589697265625	-0.08941030120849609	-0.073418701171875	0.9804089965820313	-0.07771749877929687	-0.0518760986328125	0.9849730224609375	-0.06267119979858399	0.000566449999809265	1.0273399658203124
6	0.2	-0.04215060043334961	-0.05837979888916016	0.9491199951171875	-0.03198060035705566	-0.044374099731445314	0.967802001953125	-0.026399099349975585	-0.031002399444580078	0.9904910278320312	-0.03934659957885742	-0.010328900337219239	1.003969970703125	-0.0034141700267791746	-0.1342010040283203	0.9801259765625	-0.009220290184020995	-0.11424099731445313	0.9859030151367187	-0.017481800079345702	-0.09795719909667969	0.9947650146484375	-0.03349390029907227	-0.06779989624023437	1.0093699951171875	-0.03608119964599609	-0.045001598358154295	0.9866690063476562	-0.032747501373291014	-0.05843999862670898	0.9740469970703125	-0.03747890090942383	-0.08168810272216796	0.9749749755859375	-0.05645970153808594	-0.06980180358886719	1.00847998046875	-0.04565420150756836	-0.04284510040283203	0.9730449829101563	-0.04828509902954101	-0.059761299133300784	0.9652230224609375	-0.05964799880981445	-0.07995649719238282	0.9697230224609374	-0.06932599639892578	-0.06244670104980469	0.9960390014648437	-0.10484999847412109	-0.10446199798583984	0.9705770263671875	-0.09676249694824218	-0.08624829864501952	0.97522900390625	-0.09035070037841797	-0.07273139953613281	0.9797760009765625	-0.07839119720458984	-0.051153701782226564	0.9844169921875	-0.06295449829101563	0.000938468992710113	1.0271099853515624
7	0.23333333333333334	-0.042609798431396485	-0.0579385986328125	0.9488909912109375	-0.03232820129394531	-0.04400699996948242	0.9675709838867188	-0.026640100479125975	-0.03086840057373047	0.9901640014648437	-0.03968099975585938	-0.010054699897766113	1.0036500244140625	-0.0041715998649597165	-0.13406199645996095	0.9795	-0.009886719703674317	-0.11401100158691406	0.9854630126953124	-0.018034299850463866	-0.09780400085449219	0.9943350219726562	-0.033746200561523436	-0.06758489990234375	1.0086900024414063	-0.03595880126953125	-0.044634601593017575	0.9858469848632813	-0.03317309951782227	-0.0580546989440918	0.9735989990234375	-0.03800559997558594	-0.08129270172119141	0.9745009765625	-0.05686940002441406	-0.06951329803466796	1.0082899780273438	-0.04598979949951172	-0.04238840103149414	0.9729110107421876	-0.04869129943847656	-0.059295299530029294	0.9649030151367187	-0.06011080169677734	-0.07947489929199218	0.9692449951171875	-0.06963629913330079	-0.062054698944091796	0.9957520141601562	-0.10541799926757812	-0.10375299835205078	0.9700369873046875	-0.09724729919433593	-0.08556670379638671	0.9747899780273438	-0.0908156967163086	-0.07210150146484375	0.9794609985351562	-0.07872450256347656	-0.05067330169677734	0.9842379760742187	-0.06306039810180664	0.001318910002708435	1.0271500244140626
8	0.26666666666666666	-0.042706298828125	-0.05774480056762695	0.9489290161132813	-0.032376201629638675	-0.04381060028076172	0.967625	-0.02660740089416504	-0.03060650062561035	0.9901849975585938	-0.03963040161132812	-0.009795669555664063	1.0036900024414062	-0.004522900104522705	-0.1339459991455078	0.979719970703125	-0.010199199676513672	-0.11388500213623047	0.9856110229492188	-0.01828730010986328	-0.09766699981689453	0.994427978515625	-0.034018001556396484	-0.06737699890136718	1.0090700073242187	-0.03660240173339844	-0.04429980087280273	0.9864299926757812	-0.03330559921264648	-0.057932998657226564	0.9736069946289062	-0.038205398559570315	-0.08113249969482422	0.9746959838867187	-0.05704700088500977	-0.06917189788818359	1.0082000122070311	-0.04608309936523437	-0.042248401641845706	0.97289501953125	-0.048771198272705076	-0.05901580047607422	0.9649669799804688	-0.06025680160522461	-0.07918129730224609	0.9692559814453126	-0.0698019027709961	-0.061733001708984374	0.995718017578125	-0.10568800354003906	-0.10326599884033204	0.969906005859375	-0.09745850372314453	-0.08512789916992188	0.9746710205078125	-0.091002197265625	-0.07171530151367188	0.9794940185546875	-0.07880680084228515	-0.05035720062255859	0.984156005859375	-0.06306949996948243	0.001611479997634887	1.02702001953125
